<?xml version="1.0" encoding="utf-8"?>
<!-- Generator: Adobe Illustrator 16.0.3, SVG Export Plug-In . SVG Version: 6.00 Build 0)  -->
<!DOCTYPE svg PUBLIC "-//W3C//DTD SVG 1.1//EN" "http://www.w3.org/Graphics/SVG/1.1/DTD/svg11.dtd">
<svg version="1.1" xmlns="http://www.w3.org/2000/svg" xmlns:xlink="http://www.w3.org/1999/xlink" x="0px" y="0px" width="1000px"
	 height="1000px" viewBox="0 0 1000 1000" enable-background="new 0 0 1000 1000" xml:space="preserve">
<g id="Layer_1" display="none">
	<path display="inline" fill-rule="evenodd" clip-rule="evenodd" fill="none" d="M492.297,1000c0.674-0.108,1.516,0.006,2.001-0.354
		c41.908-31.044,83.788-62.123,126.058-93.486c0.885-12.627,1.768-25.242,2.652-37.854c8.268,5.152,16.537,10.305,24.805,15.456
		c2.953-1.574,6.158-2.813,8.822-4.78c27.014-19.96,53.324-40.944,81.102-59.769c18.797-12.738,32.676-26.546,29.49-51.136
		c7.039,3.872,14.08,7.743,21.121,11.616c1.025-0.219,2.283-0.131,3.049-0.703c32.859-24.57,65.736-49.122,98.375-73.983
		c2.422-1.842,4.012-5.837,4.459-9.045c5.117-36.736,9.996-73.505,14.727-110.296c0.406-3.178-0.729-6.556-1.143-9.842
		c-6.203-4.763-12.406-9.526-18.609-14.291c3.162-2.218,6.092-4.916,9.527-6.563c12.387-5.94,17.951-15.555,18.965-29.255
		c1.197-16.145,4.1-32.157,6.096-48.25c3.121-25.144,6.104-50.307,9.145-75.46c-7.938-4.596-15.875-9.191-23.813-13.786
		c4.529-2.693,8.9-5.705,13.617-8.015c11.484-5.624,17.871-14.181,18.445-27.361c0.398-9.147,2.121-18.242,3.373-27.343
		c5.137-37.368,10.32-74.727,15.67-113.417c-49.297-21.703-98.711-43.46-147.496-64.938c-24.035,12.513-46.967,24.37-69.816,36.373
		c-16.223,8.522-32.342,17.243-48.506,25.875c-1.051,8.746-2.104,17.49-3.156,26.236c-8.656-3.976-17.314-7.953-26.131-12.004
		c-8.053,4.184-15.896,8.227-23.713,12.324c-35.723,18.733-71.434,37.478-107.149,56.219c-0.954,2.713-2.544,5.379-2.745,8.146
		c-0.613,8.406-0.69,16.851-0.976,25.279c-19.202-14.054-38.703-18.791-58.903-1.896c-0.667-9.864-1.335-19.728-2.003-29.592
		c-1.32-1.122-2.64-2.244-3.959-3.365c3.084-1.598,6.168-3.193,9.424-4.88c0.406-8.858,0.784-17.114,1.231-26.885
		c9.599,4.978,17.652,9.154,25.689,13.32c42.212-21.437,84.092-42.706,125.465-63.715c1.277-34.516,2.586-67.03,3.643-99.554
		c0.512-15.803,0.553-31.623,0.807-47.435c-0.764-0.729-1.406-1.695-2.309-2.152C593.98,41.392,558.428,23.15,522.484,5.71
		c-4.287-2.082-11.275-1.157-16.059,0.756c-28.901,11.555-57.595,23.642-86.207,35.899c-11.927,5.108-23.486,11.077-35.212,16.653
		c-0.427,9.627-0.854,19.252-1.281,28.879c-2.538-1.157-5.34-1.941-7.569-3.53c-12.091-8.617-24.006-8.985-37.618-2.466
		c-19.349,9.268-39.595,16.641-59.281,25.227c-18,7.851-35.767,16.238-53.636,24.388c-0.132,9.947-0.264,19.896-0.406,29.837
		c-10.854-5.744-21.709-11.488-33.467-17.71c-48.101,20.522-96.046,40.98-143.992,61.439c-0.611,1.159-1.859,2.389-1.739,3.467
		c5.708,51.11,11.535,102.208,17.417,153.921c9.104,6.241,18.38,12.596,27.656,18.953c-7.856,4.739-15.712,9.475-23.568,14.214
		c1.233,12.291,2.397,24.589,3.712,36.871c3.72,34.753,7.5,69.499,11.196,103.663c8.879,6.855,16.952,13.088,25.023,19.318
		c-6.864,4.714-13.728,9.425-20.591,14.139c0.487,7.012,0.745,14.05,1.5,21.033c3.793,35.077,7.716,70.14,11.56,104.908
		c17.623,13.77,34.506,27.188,51.635,40.286c17.073,13.056,34.394,25.788,51.606,38.662c7.098-3.606,14.198-7.212,21.297-10.818
		c0.968,10.451,1.935,20.901,2.903,31.362c25.633,19.771,50.945,39.459,76.448,58.895c12.478,9.512,25.31,18.56,37.981,27.816
		c7.637-4.056,15.274-8.11,22.913-12.166c0,10.892,0,21.787,0,32.077c14.026,10.891,26.785,20.878,39.625,30.757
		C433.631,954.987,462.972,977.483,492.297,1000z"/>
	<path display="inline" fill-rule="evenodd" clip-rule="evenodd" fill="#488FFC" d="M224.46,763.699
		c-7.099,3.606-14.199,7.212-21.299,10.818c-3.242-43.021-6.483-86.04-9.755-129.48c-29.894-21.897-59.521-43.727-89.327-65.313
		c-5.364-3.885-11.459-6.757-17.217-10.097c6.863-4.714,13.727-9.425,20.591-14.138c27.081,19.043,54.16,38.085,82.114,57.742
		c0.176-2.656,0.428-3.978,0.327-5.274c-3.34-43.397-6.552-86.809-10.333-130.167c-0.383-4.396-3.138-10.109-6.64-12.473
		c-34.911-23.557-70.209-46.538-105.398-69.681c7.856-4.739,15.711-9.475,23.565-14.216c27.608,17.844,55.22,35.692,84.892,54.871
		c-4.301-54.51-8.377-106.174-12.492-158.313c1.61-1.832,3.455-3.932,5.299-6.034c46.254-20.933,92.509-41.864,140.7-63.673
		c-29.54-16.446-56.9-31.678-84.262-46.91c0.133-9.949,0.265-19.898,0.402-29.841c39.16,20.532,78.316,41.058,117.584,61.644
		c43.313-19.786,86.331-39.437,131.141-59.906c-9.126-4.699-16.583-8.647-24.135-12.405c-22.144-11.025-44.325-21.976-66.492-32.955
		c0.426-9.627,0.854-19.252,1.286-28.875c39.099,20.542,78.191,41.08,117.409,61.684c43.359-19.792,86.438-39.453,129.516-59.117
		c-0.254,15.812-0.295,31.632-0.807,47.435c-1.057,32.524-2.365,65.038-3.643,99.554c-41.373,21.009-83.253,42.278-125.465,63.715
		c-8.037-4.167-16.09-8.342-25.689-13.32c-0.447,9.771-0.825,18.026-1.231,26.885c-3.256,1.687-6.34,3.282-9.42,4.88
		c-42.159-22.242-84.32-44.488-126.905-66.954c-2.963,1.284-6.202,2.62-9.383,4.078c-40.792,18.695-81.59,37.382-122.348,56.152
		c-5.056,2.329-9.896,5.123-14.835,7.706c-0.368,3.052-1.234,6.137-1.028,9.147c1.982,28.877,4.07,57.746,6.283,86.606
		c1.697,22.14,3.616,44.261,5.438,66.412c9.932,6.584,19.327,12.827,28.741,19.047c31.207,20.617,62.419,41.223,93.631,61.836
		c-7.895,6.117-15.792,12.238-23.858,18.489c7.945,5.855,15.55,11.461,22.907,16.885c0.53,10.389,1.008,19.74,1.53,29.994
		c9.254-4.937,17.255-9.202,24.98-13.32c32.004,21.543,63.422,42.117,94.217,63.588c29.048,20.257,23.481,9.702,24.15,44.638
		c0.018,0.902,0.609,1.793,1.316,3.752c8.495-5.061,16.545-9.856,24.169-14.396c9.859,5.681,18.842,10.86,29.608,17.064
		c0-13.896,0-25.18,0-36.535c33.39-21.419,66.731-41.651,98.718-63.838c14.928-10.351,27.512-14.939,41.852-0.934
		c0.301,0.295,1.285-0.106,2.791-0.281c1.078-9.516,2.178-19.227,3.195-28.212c8.16-5.838,15.438-11.044,22.727-16.259
		c-7.699-6.334-14.191-11.675-20.684-17.019c7.93-5.892,15.535-12.292,23.846-17.582c33.438-21.281,67.098-42.218,100.525-63.19
		c5.424-54.283,10.766-107.757,16.125-161.399c-3.186-1.635-5.988-3.114-8.828-4.521c-37.766-18.695-75.535-37.378-113.305-56.065
		c1.053-8.746,2.105-17.49,3.158-26.232c48.811,23.388,97.617,46.77,146.754,70.312c-5.592,52.98-11.148,105.659-16.9,160.16
		c29.383-17.885,57.119-34.769,84.857-51.65c7.938,4.595,15.875,9.19,23.813,13.786c-37.494,23.972-74.99,47.942-112.156,71.702
		c-5.201,48.236-10.271,95.29-15.607,144.782c15.381-10.611,28.898-20.07,42.559-29.324c13.752-9.316,27.643-18.429,41.473-27.631
		c6.203,4.765,12.406,9.528,18.605,14.291c-35.369,24.792-70.738,49.581-105.984,74.285c-4.543,43.679-9.012,86.631-13.479,129.584
		c-7.041-3.873-14.082-7.744-21.121-11.616c2.809-32.475,5.621-64.95,8.66-100.067c-41.479,29.108-80.66,56.604-118.697,83.299
		c-3.234,45.692-6.305,89.074-9.377,132.455c-8.268-5.153-16.537-10.306-24.805-15.458c1.158-30.981,2.314-61.964,3.568-95.519
		c-45.164,31.601-88.555,61.962-131.945,92.321c-43.553-31.593-87.107-63.182-129.926-94.24c0,33.697,0,66.22,0,98.738
		c-7.638,4.056-15.276,8.11-22.911,12.162c-1.718-43.79-3.438-87.574-5.182-131.958c-38.887-28.353-77.88-56.78-118.626-86.485
		C220.249,698.395,222.355,731.047,224.46,763.699z"/>
	<path display="inline" fill-rule="evenodd" clip-rule="evenodd" fill="#EEC802" d="M471.639,323.696
		c20.2-16.895,39.701-12.158,58.9,1.895c39.141,21.658,78.283,43.32,117.354,64.938c-2.02,43.87-4.018,87.271-6.016,130.674
		c-1.016,11.949-2.035,23.899-3.084,36.223c-27.088,17.022-53.998,34.106-81.082,50.902c-20.115,12.473-40.457,24.575-60.696,36.843
		c0-56.572,0-113.146,0-171.565c-46.711-27.912-95.586-57.119-144.462-86.324c3.186-2.078,6.228-4.425,9.578-6.188
		C398.606,361.907,435.129,342.814,471.639,323.696z"/>
	<path display="inline" fill-rule="evenodd" clip-rule="evenodd" fill="#EEC802" d="M691.256,235.629
		c37.77,18.687,75.539,37.37,113.305,56.065c2.84,1.407,5.643,2.886,8.828,4.521c-5.359,53.642-10.701,107.117-16.125,161.399
		c-33.428,20.972-67.088,41.909-100.525,63.19c-8.311,5.29-15.916,11.69-23.844,17.577c-1.02-0.703-2.043-1.406-3.066-2.107
		c4.117-54.636,8.234-109.271,12.385-164.337c-10.41-5.728-20.242-11.239-30.17-16.574c-39.242-21.095-78.518-42.134-117.78-63.195
		c35.716-18.741,71.427-37.486,107.149-56.219c7.816-4.097,15.66-8.14,23.713-12.324C673.941,227.676,682.6,231.653,691.256,235.629
		z"/>
	<path display="inline" fill-rule="evenodd" clip-rule="evenodd" fill="#EFC803" d="M909.125,388.218
		c-27.738,16.882-55.475,33.765-84.857,51.65c5.752-54.501,11.309-107.18,16.9-160.16c-49.137-23.542-97.943-46.924-146.754-70.312
		c16.162-8.637,32.281-17.358,48.504-25.88c22.85-12.003,45.781-23.86,69.816-36.373c48.785,21.478,98.199,43.235,147.496,64.938
		c-5.35,38.69-10.533,76.049-15.67,113.417c-1.252,9.101-2.975,18.196-3.373,27.343c-0.574,13.18-6.961,21.737-18.445,27.361
		C918.025,382.513,913.654,385.525,909.125,388.218z"/>
	<path display="inline" fill-rule="evenodd" clip-rule="evenodd" fill="#EEC803" d="M192.209,291.719
		c4.939-2.58,9.779-5.374,14.835-7.703c40.758-18.77,81.556-37.458,122.348-56.152c3.182-1.458,6.42-2.794,9.383-4.078
		c42.585,22.466,84.747,44.712,126.905,66.954c1.315,1.121,2.635,2.243,3.955,3.365c-46.753,23.666-93.47,47.402-140.333,70.847
		c-3.445,1.722-7.947,1.335-11.957,1.93C275.634,341.826,233.922,316.773,192.209,291.719z"/>
	<path display="inline" fill-rule="evenodd" clip-rule="evenodd" fill="#2E0260" d="M168.786,271.944
		c-1.845,2.102-3.689,4.203-5.299,6.034c4.115,52.139,8.191,103.804,12.492,158.313c-29.672-19.179-57.284-37.027-84.892-54.871
		c-9.272-6.354-18.548-12.71-27.653-18.951c-5.882-51.712-11.709-102.811-17.417-153.921c-0.121-1.078,1.127-2.308,1.739-3.467
		C84,226.878,120.179,248.788,156.6,270.285C159.854,272.205,164.687,271.453,168.786,271.944z"/>
	<path display="inline" fill-rule="evenodd" clip-rule="evenodd" fill="#2E0260" d="M364.705,869.606c0-32.519,0-65.041,0-98.738
		c42.819,31.059,86.373,62.647,129.927,94.238c-0.778,44.963-1.558,89.929-2.335,134.894c-29.325-22.517-58.666-45.013-87.967-67.56
		c-12.84-9.879-25.599-19.866-39.625-30.757C364.705,891.394,364.705,880.498,364.705,869.606z"/>
	<path display="inline" fill-rule="evenodd" clip-rule="evenodd" fill="#EEC803" d="M168.786,271.944
		c-4.1-0.491-8.932,0.261-12.186-1.659c-36.421-21.497-72.6-43.407-108.844-65.203c47.946-20.459,95.892-40.917,143.992-61.439
		c11.758,6.222,22.613,11.966,33.472,17.714c27.366,15.237,54.727,30.469,84.267,46.915
		C261.295,230.08,215.041,251.011,168.786,271.944z"/>
	<path display="inline" fill-rule="evenodd" clip-rule="evenodd" fill="#EEC803" d="M492.297,1000
		c0.777-44.965,1.557-89.931,2.335-134.894c43.39-30.357,86.78-60.719,131.944-92.319c-1.254,33.555-2.41,64.537-3.568,95.519
		c-0.885,12.612-1.768,25.228-2.652,37.854c-42.27,31.363-84.149,62.442-126.058,93.486
		C493.813,1000.006,492.971,999.892,492.297,1000z"/>
	<path display="inline" fill-rule="evenodd" clip-rule="evenodd" fill="#2E0361" d="M224.46,763.699
		c-2.105-32.652-4.211-65.305-6.474-100.374c40.746,29.705,79.739,58.133,118.626,86.485c1.744,44.384,3.463,88.168,5.182,131.958
		c-12.674-9.253-25.505-18.301-37.983-27.813c-25.502-19.436-50.814-39.123-76.448-58.895
		C226.395,784.601,225.428,774.15,224.46,763.699z"/>
	<path display="inline" fill-rule="evenodd" clip-rule="evenodd" fill="#EEC804" d="M383.726,87.897
		c22.167,10.979,44.348,21.93,66.492,32.955c7.552,3.758,15.009,7.706,24.135,12.405c-44.81,20.469-87.827,40.121-131.141,59.906
		c-39.269-20.586-78.425-41.111-117.584-61.644c17.864-8.154,35.63-16.541,53.631-24.392c19.686-8.586,39.933-15.959,59.281-25.227
		c13.611-6.52,25.526-6.151,37.618,2.466C378.385,85.957,381.188,86.74,383.726,87.897z"/>
	<path display="inline" fill-rule="evenodd" clip-rule="evenodd" fill="#EEC804" d="M631.936,61.59
		c-43.078,19.664-86.156,39.325-129.516,59.117c-39.217-20.604-78.31-41.142-117.409-61.684
		c11.722-5.581,23.28-11.549,35.208-16.657c28.612-12.258,57.306-24.345,86.207-35.899c4.783-1.913,11.771-2.838,16.059-0.756
		c35.943,17.44,71.496,35.682,107.143,53.728C630.529,59.895,631.172,60.86,631.936,61.59z"/>
	<path display="inline" fill-rule="evenodd" clip-rule="evenodd" fill="#2E0361" d="M67.522,395.637
		c35.189,23.144,70.488,46.125,105.398,69.681c3.502,2.364,6.257,8.077,6.64,12.473c3.782,43.358,6.993,86.77,10.333,130.167
		c0.101,1.297-0.151,2.618-0.327,5.274c-27.954-19.657-55.033-38.699-82.114-57.742c-8.071-6.231-16.144-12.464-25.023-19.319
		c-3.695-34.164-7.476-68.91-11.196-103.663C69.919,420.226,68.755,407.927,67.522,395.637z"/>
	<path display="inline" fill-rule="evenodd" clip-rule="evenodd" fill="#EEC804" d="M647.813,883.762
		c3.072-43.379,6.143-86.761,9.377-132.453c38.037-26.694,77.219-54.19,118.697-83.299c-3.039,35.117-5.852,67.593-8.66,100.067
		c3.186,24.59-10.693,38.397-29.49,51.136c-27.777,18.824-54.088,39.809-81.102,59.769
		C653.971,880.949,650.766,882.188,647.813,883.762z"/>
	<path display="inline" fill-rule="evenodd" clip-rule="evenodd" fill="#EEC804" d="M889.205,561.533
		c-13.83,9.202-27.721,18.314-41.473,27.631c-13.66,9.254-27.178,18.713-42.559,29.324c5.336-49.492,10.406-96.546,15.607-144.782
		c37.166-23.76,74.662-47.73,112.156-71.702c-3.041,25.154-6.023,50.317-9.145,75.46c-1.996,16.093-4.898,32.105-6.096,48.25
		c-1.014,13.7-6.578,23.314-18.965,29.255C895.297,556.617,892.367,559.315,889.205,561.533z"/>
	<path display="inline" fill-rule="evenodd" clip-rule="evenodd" fill="#2E0361" d="M86.862,569.628
		c5.758,3.34,11.853,6.212,17.217,10.097c29.806,21.586,59.433,43.415,89.327,65.313c3.272,43.44,6.513,86.46,9.755,129.48
		c-17.211-12.874-34.532-25.606-51.604-38.662c-17.129-13.098-34.013-26.517-51.635-40.286
		c-3.844-34.769-7.767-69.831-11.56-104.908C87.607,583.678,87.35,576.64,86.862,569.628z"/>
	<path display="inline" fill-rule="evenodd" clip-rule="evenodd" fill="#EFC804" d="M788.348,779.693
		c4.467-42.953,8.936-85.905,13.479-129.584c35.246-24.704,70.615-49.493,105.984-74.285c0.418,3.286,1.553,6.664,1.146,9.842
		c-4.73,36.791-9.609,73.56-14.727,110.296c-0.447,3.208-2.037,7.203-4.459,9.045c-32.639,24.861-65.516,49.413-98.375,73.983
		C790.631,779.563,789.373,779.475,788.348,779.693z"/>
	<path display="inline" fill-rule="evenodd" clip-rule="evenodd" fill="#4A90F8" d="M534.263,292.167
		c39.263,21.062,78.538,42.101,117.78,63.195c9.928,5.335,19.76,10.846,30.17,16.574c-4.15,55.066-8.268,109.702-12.385,164.339
		c-9.316-5.022-18.633-10.049-27.951-15.077c1.998-43.4,3.996-86.801,6.016-130.671c-39.07-21.618-78.213-43.28-117.354-64.938
		c0.288-8.426,0.365-16.871,0.979-25.277C531.719,297.546,533.309,294.881,534.263,292.167z"/>
	<path display="inline" fill-rule="evenodd" clip-rule="evenodd" fill="#498DF8" d="M317.347,366.88
		c4.01-0.594,8.511-0.208,11.957-1.93c46.863-23.444,93.579-47.181,140.333-70.847c0.667,9.864,1.335,19.728,2.003,29.592
		c-36.51,19.119-73.033,38.211-109.508,57.397c-3.35,1.763-6.392,4.111-9.578,6.188c-0.242,4.211-0.76,8.426-0.683,12.633
		c0.745,40.977,1.586,81.953,2.402,122.929c-8.602,3.829-17.203,7.658-25.804,11.487c-0.471-6.344-1.139-12.682-1.378-19.037
		c-1.691-44.584-3.158-89.175-5.11-133.748C321.763,376.599,318.954,371.767,317.347,366.88z"/>
	<path display="inline" fill-rule="evenodd" clip-rule="evenodd" fill="#2D0260" d="M317.347,366.88
		c1.606,4.887,4.416,9.719,4.632,14.665c1.952,44.573,3.419,89.164,5.11,133.748c0.239,6.355,0.907,12.693,1.379,19.037
		c-1.063,0.145-2.129,0.292-3.194,0.44c-31.211-20.613-62.424-41.22-93.631-61.836c-9.414-6.22-18.809-12.463-28.741-19.047
		c-1.822-22.151-3.741-44.272-5.438-66.412c-2.213-28.86-4.301-57.729-6.283-86.606c-0.207-3.01,0.66-6.095,1.028-9.147
		C233.922,316.773,275.634,341.826,317.347,366.88z"/>
	<path display="inline" fill-rule="evenodd" clip-rule="evenodd" fill="none" d="M325.274,534.771
		c1.065-0.148,2.13-0.296,3.194-0.44c8.6-3.829,17.202-7.658,25.805-11.479c0.76,10.507,1.52,21.007,2.265,31.326
		c33.167,21.777,65.345,43.027,97.66,64.068c14.127,9.197,28.534,17.964,42.816,26.925c20.239-12.268,40.581-24.37,60.696-36.843
		c27.084-16.796,53.994-33.88,81.082-50.902c1.049-12.323,2.068-24.273,3.084-36.223c9.318,5.025,18.635,10.052,27.951,15.074
		c1.023,0.699,2.047,1.402,3.066,2.105c6.49,5.349,12.982,10.689,20.682,17.023c-7.289,5.215-14.566,10.421-22.727,16.259
		c-1.018,8.985-2.117,18.696-3.195,28.212c-1.506,0.175-2.49,0.576-2.791,0.281c-14.34-14.006-26.924-9.417-41.852,0.934
		c-31.986,22.187-65.328,42.419-98.718,63.838c0,11.355,0,22.639,0,36.535c-10.767-6.204-19.749-11.384-29.608-17.064
		c-7.624,4.54-15.674,9.336-24.169,14.396c-0.707-1.959-1.298-2.85-1.316-3.752c-0.668-34.936,4.898-24.381-24.15-44.638
		c-30.795-21.471-62.213-42.045-94.217-63.588c-7.725,4.118-15.726,8.384-24.98,13.32c-0.522-10.254-1-19.605-1.53-29.994
		c-7.357-5.424-14.962-11.029-22.907-16.885C309.483,547.009,317.379,540.888,325.274,534.771z"/>
	<path display="inline" fill-rule="evenodd" clip-rule="evenodd" fill="#2E0260" d="M497.015,645.17
		c-14.282-8.961-28.689-17.728-42.816-26.925c-32.315-21.041-64.493-42.291-97.66-64.068c-0.746-10.319-1.505-20.819-2.265-31.326
		c-0.817-40.983-1.659-81.959-2.403-122.937c-0.077-4.207,0.441-8.422,0.683-12.633c48.876,29.205,97.751,58.412,144.462,86.324
		C497.015,532.024,497.015,588.598,497.015,645.17z"/>
</g>
<g id="Layer_2">
	<g id="Layer_2_1_">
		<g>
			<path fill-rule="evenodd" clip-rule="evenodd" fill="none" d="M492.948,1000c0.675-0.109,1.513,0.008,2-0.354
				c41.851-31.001,83.675-62.036,125.887-93.361c0.884-12.608,1.769-25.206,2.652-37.8c8.255,5.144,16.512,10.29,24.769,15.436
				c2.949-1.574,6.147-2.811,8.811-4.776c26.977-19.934,53.249-40.888,80.993-59.689c18.771-12.723,32.632-26.512,29.448-51.068
				c7.032,3.868,14.063,7.735,21.092,11.604c1.029-0.221,2.282-0.133,3.045-0.701c32.818-24.541,65.649-49.058,98.246-73.886
				c2.42-1.842,4.009-5.829,4.453-9.034c5.111-36.688,9.982-73.405,14.704-110.148c0.407-3.175-0.726-6.548-1.141-9.826
				c-6.194-4.76-12.391-9.515-18.581-14.273c3.157-2.215,6.083-4.908,9.511-6.556c12.374-5.93,17.93-15.531,18.946-29.215
				c1.19-16.123,4.091-32.115,6.083-48.185c3.115-25.111,6.096-50.239,9.134-75.36c-7.926-4.589-15.856-9.178-23.781-13.768
				c4.522-2.688,8.889-5.697,13.598-8.005c11.47-5.615,17.847-14.161,18.423-27.324c0.398-9.134,2.116-18.218,3.365-27.307
				c5.133-37.318,10.308-74.627,15.652-113.265c-49.233-21.674-98.583-43.403-147.301-64.851
				c-24.004,12.496-46.902,24.337-69.723,36.324c-16.2,8.511-32.3,17.22-48.438,25.841c-1.207,8.798-2.412,17.6-3.617,26.398
				c-8.548-4.107-17.099-8.218-25.512-12.263c-8.392,4.363-16.215,8.4-24.015,12.489c-35.601,18.673-71.194,37.359-106.793,56.04
				c-0.953,2.71-2.541,5.371-2.743,8.135c-0.611,8.395-0.688,16.828-0.975,25.246c-19.174-14.036-38.65-18.768-58.823-1.895
				c-0.667-9.851-1.333-19.702-1.999-29.552c-1.319-1.12-2.638-2.24-3.955-3.361c3.08-1.595,6.159-3.188,9.411-4.873
				c0.406-8.847,0.784-17.091,1.23-26.849c9.586,4.972,17.627,9.142,25.655,13.303c42.156-21.409,83.979-42.647,127.009-64.5
				c0-17.349-0.257-33.582,0.071-49.799c0.328-16.258,1.39-32.496,1.854-48.751c0.452-15.786,0.552-31.581,0.805-47.372
				c-0.762-0.728-1.404-1.693-2.304-2.149c-35.602-18.021-71.106-36.239-106.999-53.657c-4.284-2.078-11.262-1.155-16.04,0.756
				c-28.862,11.54-57.517,23.61-86.09,35.851c-11.912,5.102-23.455,11.062-35.166,16.63c-0.426,9.615-0.853,19.227-1.279,28.84
				c-2.535-1.155-5.333-1.937-7.558-3.525c-12.077-8.605-23.975-8.973-37.568-2.462c-19.323,9.255-39.542,16.618-59.201,25.193
				c-17.977,7.84-35.72,16.216-53.565,24.355c-0.132,9.934-0.263,19.869-0.407,29.797c-10.839-5.737-21.679-11.473-33.422-17.687
				c-48.036,20.495-95.917,40.925-143.799,61.356c-0.611,1.158-1.857,2.386-1.737,3.463c5.701,51.042,11.52,102.071,17.395,153.715
				c9.093,6.23,18.355,12.579,27.619,18.928c-7.845,4.732-15.691,9.462-23.537,14.195c1.231,12.273,2.394,24.556,3.708,36.822
				c3.715,34.706,7.491,69.405,11.181,103.525c8.868,6.845,16.93,13.07,24.99,19.29c-6.855,4.709-13.709,9.415-20.563,14.119
				c0.486,7.007,0.744,14.035,1.498,21.005c3.788,35.034,7.706,70.047,11.545,104.769c17.599,13.752,34.46,27.154,51.565,40.232
				c17.051,13.039,34.348,25.757,51.537,38.61c7.089-3.602,14.18-7.204,21.269-10.804c0.967,10.438,1.932,20.876,2.899,31.322
				c25.599,19.743,50.876,39.402,76.345,58.815c12.462,9.497,25.276,18.536,37.931,27.779c7.627-4.05,15.254-8.099,22.882-12.15
				c0,10.877,0,21.757,0,32.034c14.007,10.874,26.75,20.853,39.572,30.713C434.36,955.05,463.663,977.515,492.948,1000z"/>
			<path fill-rule="evenodd" clip-rule="evenodd" fill="#488FFC" d="M909.219,389.038c7.925,4.589,15.855,9.178,23.781,13.768
				c-37.446,23.94-74.889,47.878-112.007,71.606c-5.193,48.173-10.257,95.162-15.531,144.087
				c28.984-19.485,56.424-37.93,83.864-56.378c6.19,4.759,12.387,9.514,18.581,14.273c-35.323,24.756-70.643,49.514-105.843,74.185
				c-4.539,43.618-9,86.515-13.465,129.411c-7.029-3.868-14.06-7.735-21.092-11.604c2.808-32.432,5.614-64.862,8.652-99.934
				c-41.424,29.072-80.557,56.531-118.54,83.188c-3.231,45.632-6.297,88.956-9.366,132.28c-8.255-5.146-16.512-10.292-24.767-15.436
				c1.153-30.942,2.308-61.882,3.56-95.393c-45.104,31.558-88.437,61.876-131.768,92.194c-43.495-31.545-86.99-63.093-129.752-94.11
				c0,33.651,0,66.128,0,98.605c-7.627,4.052-15.255,8.101-22.879,12.146c-1.716-43.731-3.434-87.458-5.176-131.78
				c-38.833-28.316-77.775-56.708-118.466-86.37c2.26,35.021,4.362,67.631,6.465,100.237c-7.089,3.6-14.18,7.202-21.27,10.804
				c-3.238-42.961-6.476-85.924-9.743-129.308c-29.854-21.866-59.443-43.668-89.207-65.226c-5.357-3.88-11.444-6.745-17.194-10.083
				c6.854-4.704,13.708-9.41,20.563-14.113c27.044,19.014,54.088,38.032,82.004,57.662c0.176-2.656,0.427-3.976,0.328-5.269
				c-3.337-43.336-6.543-86.691-10.32-129.992c-0.383-4.39-3.135-10.095-6.632-12.457c-34.863-23.524-70.115-46.476-105.257-69.587
				c7.846-4.733,15.691-9.463,23.533-14.197c27.572,17.819,55.146,35.644,84.779,54.799c-4.296-54.438-8.367-106.034-12.476-158.103
				c1.609-1.832,3.45-3.93,5.292-6.027c46.193-20.904,92.384-41.807,140.512-63.587c-29.501-16.423-56.825-31.635-84.15-46.846
				c0.133-9.937,0.265-19.872,0.402-29.802c39.108,20.504,78.211,41.002,117.427,61.561c43.256-19.759,86.215-39.384,130.965-59.826
				c-9.107-4.689-16.558-8.633-24.102-12.388c-22.114-11.01-44.266-21.946-66.403-32.911c0.426-9.614,0.853-19.226,1.284-28.836
				c39.046,20.515,78.087,41.026,117.25,61.603c43.304-19.765,86.325-39.4,129.344-59.038c-0.253,15.791-0.353,31.585-0.805,47.372
				c-0.465,16.255-1.526,32.494-1.854,48.751c-0.328,16.218-0.071,32.45-0.071,49.799c-43.029,21.853-84.853,43.091-127.009,64.5
				c-8.027-4.161-16.069-8.331-25.655-13.303c-0.446,9.757-0.824,18.001-1.23,26.849c-3.252,1.685-6.332,3.278-9.407,4.873
				c-42.102-22.211-84.207-44.427-126.735-66.863c-2.967,1.286-6.198,2.619-9.371,4.072c-40.738,18.67-81.48,37.333-122.184,56.077
				c-5.049,2.326-9.883,5.118-14.816,7.696c-0.367,3.047-1.233,6.127-1.026,9.134c1.979,28.838,4.064,57.668,6.274,86.49
				c1.694,22.111,3.611,44.202,5.43,66.324c9.919,6.575,19.302,12.81,28.703,19.022c31.165,20.589,62.336,41.167,93.506,61.754
				c-7.885,6.107-15.77,12.22-23.825,18.463c7.934,5.849,15.528,11.445,22.876,16.86c0.528,10.378,1.005,19.719,1.527,29.955
				c9.24-4.927,17.23-9.187,24.946-13.305c31.96,21.515,63.338,42.064,94.091,63.507c29.009,20.229,23.451,9.689,24.117,44.579
				c0.019,0.898,0.608,1.787,1.315,3.746c8.483-5.055,16.522-9.841,24.137-14.377c9.846,5.671,18.817,10.844,29.567,17.036
				c0-13.869,0-25.141,0-36.48c33.346-21.39,66.643-41.598,98.586-63.751c14.909-10.341,27.477-14.922,41.796-0.936
				c0.303,0.295,1.286-0.105,2.788-0.281c1.076-9.501,2.175-19.198,3.189-28.174c8.149-5.831,15.417-11.029,22.697-16.232
				c-7.687-6.327-14.172-11.664-20.654-17.003c7.903-5.87,15.482-12.256,23.768-17.53c33.346-21.218,66.912-42.095,100.434-63.123
				c5.385-53.936,10.712-107.297,16.091-161.175c-40.765-20.088-81.59-40.206-122.418-60.325c1.205-8.798,2.41-17.6,3.617-26.394
				c48.744,23.356,97.485,46.707,146.556,70.218c-5.581,52.909-11.132,105.518-16.875,159.945
				C853.815,422.758,881.518,405.897,909.219,389.038z"/>
			<path fill-rule="evenodd" clip-rule="evenodd" fill="#FFFFFF" d="M472.318,324.602c20.172-16.874,39.649-12.141,58.821,1.892
				c39.09,21.629,78.18,43.262,117.196,64.851c-2.015,43.812-4.01,87.155-6.007,130.5c-1.016,11.931-2.033,23.864-3.078,36.173
				c-27.055,17-53.926,34.063-80.976,50.835c-20.088,12.455-40.402,24.543-60.616,36.793c0-56.495,0-112.993,0-171.335
				c-46.647-27.874-95.456-57.042-144.267-86.208c3.182-2.074,6.22-4.42,9.565-6.18
				C399.383,362.762,435.858,343.695,472.318,324.602z"/>
			<path fill-rule="evenodd" clip-rule="evenodd" fill="#FFFFFF" d="M691.178,236.85c40.828,20.119,81.653,40.237,122.418,60.325
				c-5.379,53.878-10.706,107.239-16.091,161.175c-33.521,21.028-67.088,41.905-100.434,63.123
				c-8.285,5.274-15.864,11.66-23.768,17.526c-1.02-0.701-2.041-1.398-3.062-2.102c4.111-54.563,8.225-109.126,12.369-164.119
				c-10.397-5.72-20.216-11.224-30.128-16.552c-39.192-21.066-78.417-42.077-117.625-63.11
				c35.599-18.681,71.192-37.367,106.793-56.04c7.8-4.089,15.623-8.126,24.015-12.489
				C674.079,228.632,682.63,232.743,691.178,236.85z"/>
			<path fill-rule="evenodd" clip-rule="evenodd" fill="#FFFFFF" d="M909.219,389.038c-27.701,16.859-55.403,33.72-84.743,51.581
				c5.743-54.427,11.294-107.036,16.875-159.945c-49.07-23.511-97.812-46.862-146.556-70.218
				c16.139-8.625,32.238-17.334,48.438-25.845c22.82-11.987,45.719-23.828,69.723-36.324
				c48.718,21.448,98.067,43.177,147.301,64.851c-5.345,38.638-10.52,75.947-15.652,113.265c-1.249,9.089-2.967,18.173-3.365,27.307
				c-0.576,13.163-6.953,21.708-18.423,27.324C918.107,383.341,913.741,386.35,909.219,389.038z"/>
			<path fill-rule="evenodd" clip-rule="evenodd" fill="#FFFFFF" d="M193.262,292.668c4.933-2.575,9.767-5.367,14.816-7.693
				c40.704-18.745,81.446-37.407,122.184-56.077c3.173-1.454,6.403-2.786,9.371-4.072c42.528,22.436,84.634,44.652,126.735,66.863
				c1.313,1.121,2.632,2.241,3.951,3.361c-46.692,23.633-93.346,47.339-140.147,70.751c-3.44,1.72-7.935,1.334-11.939,1.927
				C276.576,342.708,234.919,317.689,193.262,292.668z"/>
			<path fill-rule="evenodd" clip-rule="evenodd" fill="#08339A" d="M169.871,272.919c-1.842,2.098-3.684,4.196-5.292,6.027
				c4.108,52.068,8.179,103.665,12.476,158.103c-29.633-19.155-57.207-36.979-84.779-54.799
				c-9.26-6.347-18.522-12.695-27.615-18.926c-5.875-51.644-11.694-102.673-17.395-153.715c-0.12-1.077,1.126-2.305,1.737-3.463
				c36.196,21.768,72.326,43.648,108.698,65.117C160.951,273.181,165.776,272.43,169.871,272.919z"/>
			<path fill-rule="evenodd" clip-rule="evenodd" fill="#08339A" d="M365.527,869.782c0-32.478,0-64.954,0-98.605
				c42.762,31.018,86.257,62.565,129.753,94.11c-0.776,44.903-1.554,89.808-2.332,134.713
				c-29.285-22.485-58.587-44.95-87.849-67.471c-12.823-9.86-25.565-19.839-39.572-30.713
				C365.527,891.539,365.527,880.659,365.527,869.782z"/>
			<path fill-rule="evenodd" clip-rule="evenodd" fill="#FFFFFF" d="M169.871,272.919c-4.095-0.489-8.92,0.262-12.17-1.656
				c-36.373-21.469-72.502-43.349-108.698-65.117c47.881-20.432,95.763-40.861,143.799-61.356
				c11.743,6.213,22.583,11.95,33.427,17.69c27.33,15.216,54.654,30.428,84.155,46.851
				C262.255,231.112,216.064,252.015,169.871,272.919z"/>
			<path fill-rule="evenodd" clip-rule="evenodd" fill="#FFFFFF" d="M492.948,1000c0.778-44.905,1.556-89.81,2.332-134.713
				c43.331-30.318,86.663-60.637,131.767-92.194c-1.252,33.511-2.406,64.45-3.56,95.393c-0.884,12.594-1.769,25.191-2.652,37.8
				c-42.212,31.325-84.036,62.36-125.887,93.361C494.46,1000.008,493.623,999.891,492.948,1000z"/>
			<path fill-rule="evenodd" clip-rule="evenodd" fill="#08339A" d="M225.47,764.016c-2.103-32.606-4.205-65.217-6.465-100.237
				c40.691,29.662,79.633,58.054,118.466,86.37c1.742,44.322,3.46,88.049,5.176,131.78c-12.657-9.239-25.471-18.278-37.933-27.775
				c-25.468-19.413-50.746-39.072-76.345-58.815C227.402,784.892,226.437,774.454,225.47,764.016z"/>
			<path fill-rule="evenodd" clip-rule="evenodd" fill="#FFFFFF" d="M384.522,89.119c22.137,10.965,44.289,21.901,66.403,32.911
				c7.544,3.755,14.995,7.699,24.102,12.388c-44.75,20.442-87.709,40.067-130.965,59.826
				c-39.216-20.558-78.319-41.056-117.427-61.561c17.84-8.143,35.583-16.519,53.56-24.359c19.659-8.575,39.878-15.938,59.201-25.193
				c13.594-6.511,25.492-6.143,37.568,2.462C379.189,87.182,381.987,87.963,384.522,89.119z"/>
			<path fill-rule="evenodd" clip-rule="evenodd" fill="#FFFFFF" d="M632.399,62.847c-43.019,19.637-86.04,39.272-129.344,59.038
				c-39.162-20.576-78.204-41.088-117.25-61.603c11.706-5.572,23.249-11.532,35.161-16.634
				c28.573-12.241,57.228-24.311,86.09-35.851c4.778-1.911,11.756-2.834,16.04-0.756c35.893,17.418,71.397,35.636,106.999,53.657
				C630.995,61.154,631.638,62.119,632.399,62.847z"/>
			<path fill-rule="evenodd" clip-rule="evenodd" fill="#08339A" d="M68.742,396.447c35.142,23.111,70.394,46.063,105.257,69.587
				c3.498,2.361,6.249,8.066,6.632,12.457c3.776,43.301,6.983,86.656,10.32,129.992c0.1,1.293-0.151,2.612-0.328,5.269
				c-27.916-19.63-54.96-38.648-82.004-57.662c-8.06-6.226-16.122-12.451-24.99-19.296c-3.689-34.12-7.466-68.819-11.181-103.525
				C71.136,421.003,69.973,408.721,68.742,396.447z"/>
			<path fill-rule="evenodd" clip-rule="evenodd" fill="#FFFFFF" d="M648.254,883.921c3.069-43.324,6.135-86.648,9.366-132.28
				c37.983-26.656,77.116-54.115,118.54-83.188c-3.038,35.071-5.845,67.502-8.652,99.934c3.184,24.557-10.677,38.346-29.448,51.068
				c-27.744,18.802-54.017,39.756-80.993,59.689C654.403,881.11,651.205,882.347,648.254,883.921z"/>
			<path fill-rule="evenodd" clip-rule="evenodd" fill="#FFFFFF" d="M889.326,562.121c-27.44,18.448-54.88,36.893-83.864,56.378
				c5.274-48.926,10.338-95.914,15.531-144.087c37.118-23.728,74.561-47.666,112.007-71.606c-3.038,25.121-6.019,50.249-9.134,75.36
				c-1.992,16.07-4.893,32.062-6.083,48.185c-1.017,13.684-6.572,23.285-18.946,29.215
				C895.409,557.213,892.483,559.906,889.326,562.121z"/>
			<path fill-rule="evenodd" clip-rule="evenodd" fill="#08339A" d="M88.056,570.203c5.75,3.338,11.837,6.203,17.194,10.083
				c29.764,21.558,59.353,43.359,89.207,65.226c3.268,43.384,6.505,86.347,9.743,129.308c-17.188-12.854-34.485-25.571-51.536-38.61
				c-17.105-13.078-33.967-26.48-51.565-40.232c-3.839-34.722-7.757-69.734-11.545-104.769
				C88.8,584.238,88.542,577.21,88.056,570.203z"/>
			<path fill-rule="evenodd" clip-rule="evenodd" fill="#FFFFFF" d="M788.6,779.99c4.465-42.896,8.926-85.793,13.465-129.411
				c35.2-24.671,70.52-49.429,105.843-74.185c0.415,3.278,1.548,6.651,1.141,9.826c-4.722,36.743-9.593,73.46-14.704,110.148
				c-0.444,3.205-2.033,7.192-4.453,9.034c-32.597,24.828-65.428,49.345-98.246,73.886C790.882,779.857,789.629,779.77,788.6,779.99
				z"/>
			<path fill-rule="evenodd" clip-rule="evenodd" fill="#4A90F8" d="M534.858,293.116c39.208,21.034,78.433,42.044,117.625,63.11
				c9.912,5.328,19.73,10.832,30.128,16.552c-4.145,54.992-8.258,109.556-12.369,164.119c-9.303-5.017-18.608-10.035-27.914-15.057
				c1.997-43.341,3.992-86.684,6.007-130.496c-39.017-21.589-78.106-43.222-117.196-64.851c0.288-8.415,0.365-16.849,0.977-25.243
				C532.317,298.487,533.905,295.826,534.858,293.116z"/>
			<path fill-rule="evenodd" clip-rule="evenodd" fill="#498DF8" d="M318.232,367.729c4.005-0.593,8.5-0.207,11.939-1.927
				c46.801-23.413,93.455-47.118,140.147-70.751c0.666,9.851,1.332,19.701,1.999,29.552c-36.46,19.093-72.935,38.16-109.361,57.321
				c-3.346,1.76-6.384,4.105-9.565,6.18c-0.242,4.205-0.758,8.415-0.683,12.617c0.744,40.921,1.585,81.843,2.399,122.766
				c-8.589,3.82-17.18,7.644-25.77,11.47c-0.47-6.336-1.137-12.665-1.377-19.01c-1.688-44.526-3.153-89.059-5.103-133.571
				C322.643,377.435,319.837,372.609,318.232,367.729z"/>
			<path fill-rule="evenodd" clip-rule="evenodd" fill="#08339A" d="M318.232,367.729c1.604,4.88,4.411,9.706,4.626,14.646
				c1.95,44.512,3.415,89.044,5.103,133.571c0.24,6.345,0.907,12.674,1.378,19.01c-1.062,0.145-2.126,0.289-3.189,0.44
				c-31.169-20.587-62.341-41.166-93.506-61.754c-9.401-6.212-18.784-12.447-28.703-19.022c-1.819-22.122-3.736-44.213-5.43-66.324
				c-2.21-28.822-4.295-57.652-6.274-86.49c-0.208-3.007,0.659-6.087,1.026-9.134C234.919,317.689,276.576,342.708,318.232,367.729z
				"/>
			<path fill-rule="evenodd" clip-rule="evenodd" fill="none" d="M326.149,535.396c1.063-0.151,2.127-0.296,3.189-0.44
				c8.589-3.826,17.179-7.649,25.77-11.462c0.759,10.491,1.518,20.978,2.263,31.279c33.123,21.751,65.256,42.974,97.528,63.984
				c14.108,9.187,28.498,17.941,42.758,26.889c20.214-12.25,40.528-24.338,60.616-36.793c27.05-16.771,53.921-33.835,80.976-50.835
				c1.045-12.309,2.063-24.242,3.078-36.173c9.306,5.018,18.611,10.036,27.914,15.053c1.021,0.703,2.042,1.4,3.062,2.102
				c6.482,5.343,12.968,10.68,20.654,17.007c-7.28,5.203-14.548,10.401-22.697,16.232c-1.015,8.976-2.113,18.673-3.189,28.174
				c-1.502,0.176-2.485,0.576-2.788,0.281c-14.319-13.986-26.887-9.405-41.796,0.936c-31.943,22.153-65.24,42.361-98.586,63.751
				c0,11.34,0,22.611,0,36.48c-10.75-6.192-19.722-11.365-29.567-17.036c-7.614,4.536-15.653,9.322-24.137,14.377
				c-0.707-1.959-1.296-2.848-1.315-3.746c-0.667-34.89,4.892-24.35-24.117-44.579c-30.753-21.442-62.131-41.992-94.091-63.507
				c-7.716,4.118-15.707,8.378-24.946,13.305c-0.522-10.236-0.999-19.577-1.527-29.955c-7.348-5.415-14.943-11.012-22.876-16.86
				C310.379,547.615,318.264,541.503,326.149,535.396z"/>
			<path fill-rule="evenodd" clip-rule="evenodd" fill="#08339A" d="M497.658,645.646c-14.261-8.947-28.65-17.702-42.758-26.889
				c-32.272-21.011-64.405-42.233-97.528-63.984c-0.745-10.302-1.503-20.788-2.263-31.279c-0.815-40.931-1.657-81.853-2.4-122.774
				c-0.076-4.202,0.44-8.412,0.683-12.617c48.811,29.167,97.62,58.334,144.267,86.208
				C497.658,532.652,497.658,589.15,497.658,645.646z"/>
		</g>
	</g>
</g>
</svg>
